<svg width="522" height="333" viewBox="0 0 522 333" fill="none" xmlns="http://www.w3.org/2000/svg">
<g clip-path="url(#clip0_374_16873)">
<g opacity="0.1" clip-path="url(#clip1_374_16873)">
<path d="M190.503 376.095C195.097 361.614 174.474 342.141 144.442 332.603C114.41 323.064 86.3396 327.07 81.746 341.552C77.1525 356.033 97.7749 375.505 127.807 385.044C157.84 394.583 185.91 390.576 190.503 376.095Z" fill="url(#paint0_linear_374_16873)"/>
<path d="M89.8633 202.785C95.7777 253.146 118.662 296.498 157.849 303.712C213.801 314.023 254.283 268.456 280.469 205.617C309.981 134.791 314.613 62.803 247.812 36.9512C162.445 3.87394 77.6231 98.4461 89.8633 202.785Z" fill="url(#paint1_linear_374_16873)"/>
<path d="M449.569 131.366C449.859 131.362 450.147 131.305 450.416 131.197C450.965 130.959 451.4 130.516 451.626 129.961C451.852 129.407 451.852 128.786 451.625 128.231L438.321 95.1541C438.023 94.7338 437.592 94.4264 437.098 94.2816C436.604 94.1368 436.076 94.1632 435.598 94.3565C435.121 94.5498 434.723 94.8986 434.469 95.3465C434.214 95.7944 434.118 96.3151 434.196 96.8243L447.501 129.902C447.663 130.323 447.946 130.686 448.314 130.947C448.682 131.207 449.119 131.353 449.569 131.366Z" fill="url(#paint2_linear_374_16873)"/>
<path d="M447.634 167.469C447.923 167.469 448.211 167.416 448.481 167.311C449.03 167.074 449.464 166.63 449.69 166.076C449.917 165.522 449.916 164.9 449.69 164.346L412.195 71.2263C411.969 70.6662 411.53 70.2189 410.974 69.9828C410.419 69.7468 409.792 69.7413 409.232 69.9676C408.672 70.1939 408.225 70.6334 407.99 71.1895C407.754 71.7456 407.748 72.3727 407.974 72.9328L445.469 166.041C445.64 166.472 445.939 166.84 446.327 167.096C446.714 167.351 447.17 167.482 447.634 167.469Z" fill="url(#paint3_linear_374_16873)"/>
<path d="M440.099 189.702C440.39 189.704 440.678 189.647 440.946 189.533C441.497 189.298 441.933 188.854 442.16 188.299C442.386 187.744 442.385 187.121 442.155 186.567L391.791 61.2781C391.699 60.9787 391.546 60.7015 391.342 60.4639C391.138 60.2264 390.887 60.0335 390.605 59.8975C390.323 59.7615 390.016 59.6852 389.703 59.6735C389.391 59.6617 389.079 59.7147 388.787 59.8292C388.496 59.9437 388.231 60.1172 388.01 60.3387C387.788 60.5603 387.615 60.8252 387.501 61.1169C387.387 61.4086 387.334 61.7207 387.346 62.0338C387.358 62.3468 387.434 62.6541 387.57 62.9362L437.982 188.226C438.144 188.657 438.433 189.03 438.811 189.293C439.189 189.557 439.638 189.7 440.099 189.702Z" fill="url(#paint4_linear_374_16873)"/>
<path d="M430.858 207.687C431.148 207.684 431.435 207.626 431.705 207.518C431.986 207.408 432.242 207.244 432.459 207.035C432.676 206.825 432.849 206.575 432.969 206.298C433.088 206.02 433.151 205.722 433.154 205.421C433.157 205.119 433.1 204.82 432.987 204.54L373.008 55.5534C372.758 55.0264 372.317 54.6146 371.774 54.4022C371.231 54.1898 370.628 54.1929 370.088 54.4108C369.547 54.6287 369.11 55.045 368.866 55.5746C368.622 56.1042 368.589 56.707 368.774 57.2599L428.742 206.259C428.912 206.681 429.205 207.042 429.582 207.296C429.959 207.551 430.403 207.687 430.858 207.687Z" fill="url(#paint5_linear_374_16873)"/>
<path d="M420.65 223.3C420.941 223.302 421.229 223.244 421.497 223.13C422.048 222.895 422.485 222.452 422.711 221.897C422.938 221.341 422.936 220.719 422.706 220.165L355.192 52.237C354.942 51.71 354.501 51.2982 353.958 51.0858C353.416 50.8734 352.812 50.8765 352.272 51.0944C351.731 51.3123 351.294 51.7286 351.05 52.2582C350.806 52.7878 350.773 53.3906 350.958 53.9435L418.533 221.872C418.703 222.294 418.995 222.656 419.373 222.911C419.75 223.165 420.195 223.301 420.65 223.3Z" fill="url(#paint6_linear_374_16873)"/>
<path d="M409.789 237.218C410.161 237.214 410.526 237.12 410.853 236.944C411.181 236.768 411.46 236.515 411.668 236.206C411.877 235.898 412.007 235.544 412.048 235.174C412.089 234.804 412.04 234.43 411.905 234.084L338.029 50.5671C337.803 50.007 337.364 49.5597 336.808 49.3237C336.252 49.0876 335.625 49.0821 335.066 49.3084C334.506 49.5347 334.059 49.9743 333.823 50.5304C333.587 51.0864 333.582 51.7135 333.808 52.2736L407.672 235.79C407.844 236.211 408.137 236.571 408.514 236.825C408.891 237.08 409.334 237.216 409.789 237.218Z" fill="url(#paint7_linear_374_16873)"/>
<path d="M398.395 249.865C398.685 249.863 398.973 249.806 399.242 249.696C399.793 249.461 400.23 249.018 400.456 248.462C400.683 247.907 400.681 247.285 400.451 246.731L321.35 50.1794C321.238 49.9021 321.072 49.6495 320.863 49.4362C320.653 49.2228 320.404 49.0528 320.129 48.936C319.854 48.8191 319.558 48.7576 319.259 48.755C318.96 48.7524 318.664 48.8087 318.387 48.9207C318.109 49.0328 317.857 49.1984 317.644 49.408C317.431 49.6177 317.261 49.8673 317.144 50.1427C317.027 50.418 316.966 50.7137 316.963 51.0128C316.96 51.3119 317.017 51.6086 317.129 51.8859L396.218 248.437C396.394 248.868 396.696 249.235 397.085 249.49C397.474 249.745 397.93 249.876 398.395 249.865Z" fill="url(#paint8_linear_374_16873)"/>
<path d="M386.603 261.496C386.892 261.497 387.179 261.443 387.449 261.339C387.999 261.101 388.433 260.658 388.659 260.103C388.885 259.549 388.885 258.928 388.659 258.374L305.179 50.8328C305.067 50.5554 304.901 50.3028 304.692 50.0895C304.482 49.8761 304.233 49.7062 303.958 49.5893C303.683 49.4724 303.387 49.4109 303.088 49.4083C302.789 49.4057 302.493 49.462 302.216 49.5741C301.938 49.6861 301.686 49.8517 301.473 50.0613C301.26 50.271 301.09 50.5206 300.973 50.796C300.856 51.0713 300.795 51.367 300.792 51.6661C300.789 51.9652 300.846 52.2619 300.958 52.5393L384.486 260.068C384.654 260.492 384.946 260.855 385.324 261.109C385.701 261.364 386.147 261.499 386.603 261.496Z" fill="url(#paint9_linear_374_16873)"/>
<path d="M374.447 272.317C374.737 272.317 375.024 272.264 375.294 272.159C375.854 271.933 376.302 271.495 376.54 270.939C376.778 270.383 376.786 269.756 376.564 269.194L289.298 52.322C289.186 52.0447 289.021 51.7921 288.811 51.5788C288.602 51.3654 288.352 51.1954 288.077 51.0785C287.802 50.9617 287.506 50.9002 287.207 50.8975C286.908 50.8949 286.612 50.9513 286.335 51.0633C286.058 51.1754 285.805 51.3409 285.592 51.5506C285.379 51.7603 285.209 52.0099 285.092 52.2852C284.975 52.5606 284.914 52.8562 284.911 53.1554C284.909 53.4545 284.965 53.7512 285.077 54.0285L372.33 270.828C372.49 271.262 372.778 271.637 373.156 271.903C373.535 272.169 373.985 272.313 374.447 272.317Z" fill="url(#paint10_linear_374_16873)"/>
<path d="M361.989 282.241C362.362 282.245 362.731 282.157 363.062 281.983C363.393 281.81 363.676 281.558 363.885 281.249C364.095 280.939 364.225 280.583 364.263 280.211C364.302 279.84 364.248 279.464 364.106 279.119L273.744 54.5974C273.518 54.0373 273.078 53.59 272.523 53.3539C271.967 53.1179 271.34 53.1124 270.781 53.3387C270.221 53.565 269.774 54.0045 269.538 54.5606C269.302 55.1167 269.297 55.7438 269.523 56.3039L359.872 280.789C360.039 281.215 360.331 281.581 360.708 281.84C361.085 282.099 361.532 282.239 361.989 282.241Z" fill="url(#paint11_linear_374_16873)"/>
<path d="M349.253 291.524C349.544 291.52 349.831 291.463 350.1 291.354C350.649 291.117 351.084 290.673 351.31 290.119C351.536 289.564 351.536 288.943 351.31 288.389L258.48 57.5863C258.256 57.0246 257.817 56.5751 257.262 56.3368C256.706 56.0985 256.078 56.0908 255.517 56.3155C254.956 56.5402 254.506 56.9788 254.268 57.5349C254.03 58.091 254.022 58.719 254.247 59.2807L347.113 290.095C347.284 290.522 347.58 290.887 347.962 291.142C348.344 291.397 348.794 291.53 349.253 291.524Z" fill="url(#paint12_linear_374_16873)"/>
<path d="M336.227 300.153C336.521 300.149 336.812 300.092 337.086 299.983C337.635 299.746 338.069 299.302 338.295 298.748C338.522 298.194 338.521 297.573 338.295 297.018L243.446 61.1929C243.347 60.8973 243.188 60.625 242.98 60.3929C242.772 60.1608 242.519 59.9737 242.236 59.8431C241.953 59.7125 241.646 59.6412 241.335 59.6335C241.023 59.6258 240.713 59.682 240.424 59.7985C240.135 59.915 239.873 60.0895 239.654 60.3111C239.435 60.5327 239.263 60.7968 239.15 61.0872C239.036 61.3776 238.983 61.6882 238.994 61.9998C239.005 62.3115 239.079 62.6176 239.213 62.8994L334.134 298.749C334.309 299.161 334.6 299.514 334.971 299.763C335.343 300.013 335.779 300.148 336.227 300.153Z" fill="url(#paint13_linear_374_16873)"/>
<path d="M323.007 308.213C323.296 308.214 323.583 308.161 323.853 308.056C324.414 307.83 324.862 307.391 325.1 306.836C325.338 306.28 325.346 305.653 325.123 305.091L229.065 66.3972C228.815 65.8701 228.374 65.4583 227.831 65.2459C227.289 65.0336 226.685 65.0367 226.145 65.2546C225.604 65.4725 225.167 65.8888 224.923 66.4184C224.679 66.9479 224.646 67.5508 224.832 68.1037L320.89 306.785C321.06 307.208 321.352 307.57 321.729 307.825C322.107 308.079 322.552 308.215 323.007 308.213Z" fill="url(#paint14_linear_374_16873)"/>
<path d="M309.533 315.705C309.828 315.709 310.121 315.651 310.392 315.536C310.943 315.301 311.38 314.857 311.606 314.302C311.833 313.747 311.831 313.124 311.601 312.57L214.648 71.7224C214.398 71.1953 213.957 70.7835 213.414 70.5711C212.872 70.3588 212.268 70.3618 211.728 70.5798C211.187 70.7977 210.75 71.214 210.506 71.7435C210.262 72.2731 210.229 72.876 210.415 73.4289L307.38 314.337C307.561 314.755 307.863 315.108 308.247 315.352C308.631 315.595 309.079 315.719 309.533 315.705Z" fill="url(#paint15_linear_374_16873)"/>
<path d="M295.854 322.641C296.145 322.643 296.433 322.586 296.7 322.471C297.261 322.245 297.709 321.807 297.947 321.251C298.185 320.695 298.193 320.068 297.97 319.506L199.771 75.5114C199.521 74.9844 199.08 74.5726 198.537 74.3602C197.995 74.1478 197.391 74.1509 196.851 74.3688C196.31 74.5867 195.873 75.003 195.629 75.5326C195.385 76.0622 195.352 76.665 195.538 77.2179L293.737 321.213C293.908 321.634 294.201 321.996 294.578 322.25C294.955 322.504 295.399 322.641 295.854 322.641Z" fill="url(#paint16_linear_374_16873)"/>
<path d="M280.59 325.654C280.88 325.656 281.169 325.598 281.436 325.484C281.71 325.369 281.959 325.201 282.168 324.99C282.377 324.779 282.543 324.528 282.655 324.253C282.768 323.977 282.825 323.682 282.823 323.385C282.821 323.087 282.761 322.793 282.646 322.519L185.668 81.3806C185.418 80.8535 184.977 80.4417 184.434 80.2293C183.892 80.017 183.288 80.0201 182.748 80.238C182.207 80.4559 181.77 80.8722 181.526 81.4017C181.282 81.9313 181.249 82.5342 181.435 83.0871L278.485 324.226C278.655 324.645 278.946 325.005 279.321 325.26C279.695 325.514 280.137 325.651 280.59 325.654Z" fill="url(#paint17_linear_374_16873)"/>
<path d="M267.031 332.892C267.321 332.892 267.608 332.839 267.878 332.734C268.427 332.497 268.862 332.053 269.088 331.499C269.314 330.944 269.314 330.323 269.088 329.769L171.735 87.7712C171.485 87.2441 171.044 86.8323 170.501 86.62C169.958 86.4076 169.355 86.4107 168.815 86.6286C168.274 86.8465 167.837 87.2628 167.593 87.7924C167.349 88.3219 167.316 88.9248 167.501 89.4777L264.866 331.463C265.037 331.895 265.337 332.263 265.724 332.519C266.111 332.774 266.568 332.904 267.031 332.892Z" fill="url(#paint18_linear_374_16873)"/>
<path d="M253.219 339.524C253.509 339.521 253.796 339.463 254.065 339.355C254.339 339.24 254.588 339.072 254.797 338.86C255.006 338.649 255.172 338.399 255.284 338.123C255.397 337.848 255.454 337.553 255.452 337.255C255.45 336.958 255.39 336.664 255.275 336.39L158.055 94.6823C157.806 94.1553 157.364 93.7435 156.822 93.5311C156.279 93.3187 155.675 93.3218 155.135 93.5397C154.594 93.7576 154.157 94.1739 153.913 94.7035C153.669 95.2331 153.636 95.8359 153.822 96.3888L251.102 338.096C251.273 338.518 251.566 338.879 251.943 339.133C252.32 339.388 252.764 339.524 253.219 339.524Z" fill="url(#paint19_linear_374_16873)"/>
<path d="M238.971 345.055C239.261 345.052 239.548 344.994 239.817 344.886C240.091 344.771 240.34 344.603 240.549 344.391C240.759 344.18 240.924 343.929 241.036 343.654C241.149 343.379 241.206 343.084 241.204 342.786C241.202 342.489 241.142 342.195 241.027 341.92L144.569 102.137C144.457 101.86 144.292 101.608 144.082 101.394C143.873 101.181 143.623 101.011 143.348 100.894C143.073 100.777 142.777 100.716 142.478 100.713C142.179 100.71 141.883 100.767 141.606 100.879C141.329 100.991 141.076 101.156 140.863 101.366C140.65 101.576 140.48 101.825 140.363 102.101C140.246 102.376 140.185 102.672 140.182 102.971C140.18 103.27 140.236 103.567 140.348 103.844L236.854 343.627C237.025 344.049 237.318 344.41 237.695 344.664C238.072 344.919 238.516 345.055 238.971 345.055Z" fill="url(#paint20_linear_374_16873)"/>
<path d="M224.191 349.267C224.48 349.267 224.767 349.214 225.037 349.11C225.59 348.872 226.026 348.426 226.253 347.869C226.479 347.312 226.477 346.688 226.247 346.132L131.337 110.137C131.225 109.86 131.06 109.608 130.85 109.394C130.641 109.181 130.391 109.011 130.116 108.894C129.841 108.777 129.545 108.716 129.246 108.713C128.947 108.71 128.651 108.767 128.374 108.879C128.097 108.991 127.844 109.156 127.631 109.366C127.418 109.576 127.248 109.825 127.131 110.101C127.014 110.376 126.953 110.672 126.95 110.971C126.948 111.27 127.004 111.567 127.116 111.844L222.074 347.851C222.244 348.272 222.537 348.633 222.914 348.885C223.292 349.138 223.736 349.271 224.191 349.267Z" fill="url(#paint21_linear_374_16873)"/>
<path d="M209.229 352.91C209.519 352.911 209.806 352.857 210.076 352.753C210.628 352.515 211.065 352.07 211.291 351.513C211.517 350.955 211.515 350.331 211.285 349.776L118.323 118.803C118.097 118.243 117.658 117.796 117.102 117.56C116.546 117.324 115.919 117.318 115.36 117.545C114.8 117.771 114.353 118.211 114.117 118.767C113.881 119.323 113.876 119.95 114.102 120.51L207.052 351.482C207.225 351.915 207.527 352.283 207.916 352.539C208.305 352.794 208.764 352.924 209.229 352.91Z" fill="url(#paint22_linear_374_16873)"/>
<path d="M193.905 355.911C194.194 355.911 194.481 355.858 194.751 355.753C195.304 355.516 195.74 355.07 195.967 354.513C196.193 353.956 196.191 353.332 195.961 352.776L105.587 128.097C105.337 127.57 104.896 127.159 104.353 126.946C103.811 126.734 103.207 126.737 102.667 126.955C102.126 127.173 101.689 127.589 101.445 128.119C101.201 128.648 101.168 129.251 101.354 129.804L191.788 354.482C191.956 354.906 192.248 355.269 192.626 355.524C193.003 355.779 193.449 355.914 193.905 355.911Z" fill="url(#paint23_linear_374_16873)"/>
<path d="M178.339 358.247C178.633 358.243 178.924 358.186 179.197 358.078C179.749 357.843 180.185 357.399 180.412 356.844C180.638 356.289 180.636 355.666 180.407 355.112L93.117 138.047C92.8676 137.52 92.4264 137.108 91.8836 136.895C91.3408 136.683 90.7375 136.686 90.1969 136.904C89.6563 137.122 89.2193 137.538 88.9753 138.068C88.7312 138.597 88.6985 139.2 88.8838 139.753L176.222 356.783C176.388 357.21 176.679 357.578 177.056 357.839C177.433 358.1 177.88 358.242 178.339 358.247Z" fill="url(#paint24_linear_374_16873)"/>
<path d="M162.482 359.723C162.772 359.724 163.059 359.67 163.329 359.566C163.881 359.328 164.318 358.883 164.544 358.326C164.77 357.768 164.768 357.144 164.538 356.588L81.0222 148.769C80.9102 148.492 80.7447 148.239 80.5352 148.026C80.3257 147.813 80.0762 147.643 79.801 147.526C79.5259 147.409 79.2304 147.347 78.9315 147.345C78.6325 147.342 78.336 147.399 78.0589 147.511C77.7817 147.623 77.5293 147.788 77.3161 147.998C77.1029 148.208 76.933 148.457 76.8162 148.732C76.6994 149.008 76.638 149.304 76.6353 149.603C76.6327 149.902 76.689 150.198 76.801 150.476L160.365 358.247C160.527 358.678 160.816 359.051 161.194 359.314C161.572 359.578 162.021 359.721 162.482 359.723Z" fill="url(#paint25_linear_374_16873)"/>
<path d="M146.262 360.401C146.557 360.404 146.85 360.347 147.121 360.231C147.672 359.996 148.109 359.553 148.335 358.998C148.562 358.442 148.56 357.82 148.33 357.266L69.1444 160.4C69.0332 160.123 68.8685 159.87 68.6597 159.656C68.451 159.443 68.2022 159.272 67.9276 159.155C67.653 159.037 67.3579 158.975 67.0593 158.972C66.7607 158.968 66.4643 159.024 66.1872 159.135C65.91 159.247 65.6575 159.411 65.4439 159.62C65.2304 159.829 65.0601 160.078 64.9427 160.353C64.8254 160.628 64.7633 160.923 64.7599 161.222C64.7566 161.521 64.8121 161.817 64.9232 162.094L144.158 358.973C144.326 359.393 144.617 359.754 144.992 360.009C145.367 360.263 145.809 360.4 146.262 360.401Z" fill="url(#paint26_linear_374_16873)"/>
<path d="M129.644 360.051C129.938 360.047 130.229 359.99 130.503 359.882C131.052 359.644 131.486 359.2 131.713 358.646C131.939 358.092 131.939 357.471 131.712 356.916L57.7512 173.073C57.525 172.513 57.0858 172.066 56.53 171.83C55.9743 171.593 55.3476 171.588 54.7879 171.814C54.2281 172.041 53.7811 172.48 53.5452 173.036C53.3093 173.592 53.3039 174.219 53.53 174.779L127.539 358.671C127.716 359.083 128.009 359.433 128.384 359.679C128.758 359.924 129.196 360.054 129.644 360.051Z" fill="url(#paint27_linear_374_16873)"/>
<path d="M112.469 358.416C112.841 358.412 113.206 358.318 113.533 358.142C113.861 357.966 114.14 357.713 114.349 357.404C114.557 357.096 114.687 356.742 114.728 356.372C114.769 356.003 114.721 355.628 114.585 355.282L46.8534 186.906C46.6039 186.379 46.1627 185.967 45.6199 185.755C45.0771 185.542 44.4738 185.545 43.9332 185.763C43.3926 185.981 42.9557 186.398 42.7116 186.927C42.4675 187.457 42.4348 188.06 42.6201 188.612L110.352 356.976C110.523 357.399 110.815 357.762 111.192 358.018C111.569 358.275 112.013 358.413 112.469 358.416Z" fill="url(#paint28_linear_374_16873)"/>
<path d="M94.7255 355.137C95.0164 355.139 95.3046 355.082 95.5721 354.968C96.1236 354.733 96.5601 354.289 96.7866 353.734C97.0131 353.179 97.0113 352.556 96.7817 352.002L36.6452 202.459C36.5332 202.181 36.3678 201.929 36.1582 201.715C35.9487 201.502 35.6993 201.332 35.4241 201.215C35.1489 201.098 34.8534 201.037 34.5545 201.034C34.2556 201.032 33.9591 201.088 33.6819 201.2C33.4048 201.312 33.1524 201.478 32.9392 201.687C32.7259 201.897 32.5561 202.147 32.4393 202.422C32.3225 202.697 32.261 202.993 32.2584 203.292C32.2558 203.591 32.3121 203.888 32.424 204.165L92.6089 353.709C92.7797 354.131 93.0723 354.492 93.4494 354.746C93.8264 355.001 94.2707 355.137 94.7255 355.137Z" fill="url(#paint29_linear_374_16873)"/>
<path d="M75.9784 349.485C76.2719 349.487 76.5632 349.433 76.8371 349.327C77.3864 349.09 77.8208 348.646 78.047 348.092C78.2731 347.538 78.273 346.917 78.0466 346.362L27.3806 220.371C27.2686 220.093 27.1031 219.841 26.8936 219.628C26.6841 219.414 26.4346 219.244 26.1594 219.127C25.8843 219.01 25.5888 218.949 25.2899 218.946C24.991 218.944 24.6944 219 24.4173 219.112C24.1401 219.224 23.8877 219.39 23.6745 219.599C23.4613 219.809 23.2914 220.059 23.1746 220.334C23.0578 220.609 22.9964 220.905 22.9937 221.204C22.9911 221.503 23.0474 221.8 23.1594 222.077L73.8738 348.057C74.0411 348.478 74.3312 348.84 74.7065 349.095C75.0818 349.349 75.5249 349.485 75.9784 349.485Z" fill="url(#paint30_linear_374_16873)"/>
<path d="M55.5379 339.694C55.9096 339.69 56.2749 339.595 56.6023 339.419C56.9296 339.243 57.2094 338.99 57.4176 338.682C57.6257 338.373 57.756 338.019 57.7973 337.649C57.8385 337.28 57.7896 336.905 57.6545 336.559L19.785 242.459C19.5355 241.932 19.0943 241.52 18.5516 241.307C18.0088 241.095 17.4054 241.098 16.8649 241.316C16.3243 241.534 15.8873 241.95 15.6432 242.48C15.3992 243.009 15.3664 243.612 15.5518 244.165L53.4213 338.265C53.5935 338.686 53.8864 339.046 54.2632 339.301C54.6399 339.555 55.0835 339.692 55.5379 339.694Z" fill="url(#paint31_linear_374_16873)"/>
<path d="M29.8237 316.697C30.1132 316.698 30.4003 316.645 30.6703 316.54C31.2226 316.303 31.6593 315.857 31.8856 315.3C32.112 314.743 32.1099 314.118 31.8798 313.563L17.3658 277.629C17.0635 277.219 16.6323 276.922 16.1412 276.786C15.6502 276.651 15.1279 276.684 14.6579 276.88C14.188 277.077 13.7977 277.426 13.5496 277.871C13.3015 278.317 13.21 278.832 13.2898 279.336L27.8038 315.269C27.9655 315.678 28.2427 316.03 28.6014 316.284C28.9601 316.538 29.3848 316.681 29.8237 316.697Z" fill="url(#paint32_linear_374_16873)"/>
<path d="M435.999 339.149C396.98 364.153 336.662 355.379 284.908 319.53C234.665 284.722 202.069 259.681 164.756 261.496C128.313 263.275 108.598 288.788 71.3457 312.667C36.6572 334.888 -10.4892 304.304 -11.8317 253.533C-14.2266 163.172 124.564 66.2642 249.058 71.1658C357.502 75.4503 433.773 116.189 466.236 204.649C487.898 263.651 472.175 315.972 435.999 339.149Z" fill="url(#paint33_linear_374_16873)"/>
<path d="M380.252 378.434C379.648 378.422 379.074 378.17 378.654 377.735C378.235 377.299 378.005 376.715 378.015 376.111C378.018 375.811 378.081 375.515 378.2 375.24C378.319 374.964 378.492 374.716 378.708 374.508C378.924 374.301 379.18 374.139 379.459 374.032C379.739 373.924 380.038 373.874 380.337 373.884H383.119C385.199 373.884 387.268 373.884 389.312 373.751C389.613 373.734 389.916 373.778 390.201 373.879C390.486 373.979 390.748 374.135 390.973 374.338C391.198 374.54 391.38 374.785 391.51 375.058C391.64 375.331 391.715 375.627 391.731 375.929C391.752 376.232 391.712 376.537 391.613 376.824C391.514 377.112 391.359 377.376 391.156 377.602C390.952 377.828 390.706 378.01 390.431 378.139C390.155 378.267 389.857 378.339 389.553 378.35C387.437 378.447 385.296 378.471 383.155 378.483C382.188 378.459 381.208 378.459 380.252 378.434ZM365.255 377.43C362.231 377.091 359.207 376.655 356.111 376.135C355.816 376.086 355.534 375.979 355.281 375.82C355.027 375.662 354.808 375.455 354.634 375.212C354.461 374.969 354.337 374.694 354.269 374.402C354.202 374.111 354.193 373.809 354.242 373.515C354.291 373.22 354.398 372.938 354.556 372.684C354.715 372.431 354.921 372.211 355.164 372.037C355.408 371.863 355.682 371.739 355.974 371.672C356.265 371.605 356.566 371.596 356.861 371.645C359.836 372.141 362.824 372.565 365.763 372.855C366.344 372.915 366.88 373.197 367.26 373.642C367.639 374.087 367.832 374.662 367.8 375.246C367.767 375.83 367.511 376.379 367.084 376.779C366.657 377.179 366.093 377.399 365.509 377.394L365.255 377.43ZM401.878 374.949C401.832 374.653 401.844 374.351 401.914 374.06C401.985 373.769 402.112 373.495 402.288 373.254C402.465 373.012 402.687 372.807 402.942 372.652C403.198 372.496 403.482 372.392 403.777 372.347C406.741 371.887 409.704 371.33 412.57 370.664C412.862 370.598 413.164 370.589 413.458 370.639C413.753 370.689 414.035 370.796 414.288 370.955C414.542 371.115 414.761 371.322 414.934 371.566C415.108 371.81 415.231 372.085 415.298 372.377C415.364 372.669 415.373 372.971 415.323 373.266C415.273 373.561 415.166 373.843 415.007 374.096C414.848 374.35 414.641 374.569 414.397 374.743C414.153 374.916 413.878 375.039 413.586 375.106C410.611 375.796 407.539 376.377 404.479 376.861H404.128C403.59 376.857 403.07 376.663 402.661 376.313C402.252 375.963 401.979 375.48 401.89 374.949H401.878ZM341.403 373.037C338.452 372.286 335.465 371.451 332.525 370.543C331.948 370.367 331.464 369.968 331.181 369.435C330.897 368.901 330.837 368.277 331.014 367.699C331.19 367.121 331.589 366.637 332.122 366.354C332.655 366.07 333.279 366.01 333.856 366.186C336.722 367.07 339.649 367.881 342.528 368.607C343.075 368.735 343.556 369.062 343.877 369.524C344.197 369.986 344.336 370.55 344.265 371.108C344.195 371.666 343.92 372.178 343.494 372.546C343.068 372.913 342.522 373.109 341.96 373.097C341.788 373.097 341.618 373.076 341.452 373.037H341.403ZM425.101 369.478C424.894 368.912 424.921 368.286 425.175 367.739C425.429 367.192 425.889 366.769 426.455 366.562C429.274 365.533 432.043 364.383 434.704 363.149C435.253 362.895 435.879 362.87 436.447 363.079C436.727 363.182 436.985 363.34 437.205 363.543C437.425 363.746 437.602 363.99 437.728 364.262C437.853 364.534 437.924 364.828 437.936 365.127C437.948 365.426 437.901 365.725 437.798 366.005C437.694 366.286 437.537 366.544 437.334 366.764C437.131 366.984 436.887 367.162 436.615 367.288C433.845 368.571 430.943 369.708 428.028 370.834C427.747 370.94 427.448 370.989 427.148 370.978C426.848 370.967 426.553 370.896 426.28 370.77C426.008 370.644 425.763 370.465 425.561 370.243C425.358 370.021 425.202 369.761 425.101 369.478ZM318.374 365.654C315.532 364.552 312.665 363.378 309.908 362.144C309.354 361.902 308.92 361.449 308.7 360.886C308.48 360.323 308.492 359.696 308.735 359.142C308.977 358.589 309.429 358.154 309.991 357.934C310.554 357.714 311.181 357.726 311.734 357.968C314.492 359.179 317.298 360.389 320.068 361.394C320.562 361.587 320.974 361.947 321.232 362.411C321.49 362.875 321.579 363.414 321.483 363.937C321.387 364.459 321.113 364.932 320.707 365.274C320.3 365.616 319.788 365.806 319.257 365.811C318.972 365.808 318.689 365.755 318.423 365.654H318.374ZM446.715 359.336C446.39 358.826 446.279 358.209 446.405 357.618C446.532 357.026 446.887 356.509 447.392 356.177C449.92 354.616 452.339 352.825 454.758 350.985C455.239 350.614 455.848 350.45 456.45 350.528C457.052 350.607 457.598 350.921 457.969 351.403C458.339 351.884 458.504 352.493 458.425 353.096C458.347 353.698 458.033 354.245 457.552 354.616C455.133 356.516 452.569 358.332 449.968 360.014C449.609 360.253 449.189 360.383 448.759 360.389C448.364 360.399 447.973 360.307 447.624 360.123C447.274 359.939 446.978 359.668 446.763 359.336H446.715ZM465.474 344.534C465.256 344.329 465.082 344.082 464.96 343.808C464.838 343.534 464.772 343.239 464.766 342.94C464.759 342.64 464.812 342.342 464.921 342.064C465.03 341.785 465.193 341.53 465.401 341.315C467.445 339.185 469.429 336.934 471.292 334.622C471.67 334.152 472.22 333.851 472.82 333.786C473.42 333.722 474.021 333.898 474.491 334.277C474.961 334.656 475.261 335.206 475.326 335.806C475.39 336.407 475.214 337.008 474.835 337.478C472.888 339.899 470.82 342.247 468.691 344.474C468.477 344.694 468.222 344.87 467.939 344.99C467.657 345.111 467.353 345.174 467.046 345.176C466.475 345.163 465.931 344.934 465.522 344.534H465.474ZM480.339 325.859C479.822 325.546 479.45 325.04 479.305 324.452C479.16 323.865 479.253 323.243 479.565 322.725C481.077 320.207 482.504 317.569 483.834 314.882C484.127 314.384 484.597 314.015 485.151 313.85C485.704 313.684 486.3 313.735 486.817 313.991C487.335 314.247 487.737 314.689 487.942 315.23C488.147 315.77 488.14 316.368 487.922 316.903C486.543 319.687 485.044 322.446 483.471 325.073C483.268 325.41 482.981 325.689 482.637 325.883C482.294 326.076 481.906 326.176 481.512 326.174C481.116 326.167 480.729 326.059 480.387 325.859H480.339Z" fill="url(#paint34_linear_374_16873)"/>
<path d="M-13.0897 180.527C-13.3437 180.368 -13.5637 180.16 -13.7372 179.916C-13.9106 179.671 -14.034 179.395 -14.1004 179.102C-14.1667 178.81 -14.1746 178.507 -14.1236 178.212C-14.0726 177.916 -13.9638 177.634 -13.8033 177.381C-12.2068 174.839 -10.4893 172.249 -8.71131 169.695C-8.55043 169.425 -8.33566 169.191 -8.08043 169.008C-7.82519 168.825 -7.53495 168.696 -7.22783 168.63C-6.92071 168.564 -6.60329 168.562 -6.29539 168.625C-5.98748 168.687 -5.6957 168.812 -5.43824 168.992C-5.18078 169.172 -4.96318 169.403 -4.79901 169.671C-4.63484 169.939 -4.52763 170.238 -4.48406 170.55C-4.4405 170.861 -4.46151 171.178 -4.5458 171.481C-4.63009 171.783 -4.77583 172.066 -4.97395 172.309C-6.71563 174.803 -8.38474 177.32 -9.95709 179.813C-10.159 180.141 -10.4421 180.412 -10.779 180.598C-11.1158 180.785 -11.4952 180.881 -11.8802 180.878C-12.3079 180.874 -12.7263 180.753 -13.0897 180.527ZM0.638145 160.969C0.404877 160.781 0.211005 160.549 0.0676633 160.286C-0.0756781 160.023 -0.165667 159.734 -0.197134 159.436C-0.228602 159.138 -0.200928 158.836 -0.115704 158.549C-0.03048 158.262 0.110616 157.994 0.299483 157.762C2.18631 155.426 4.18198 153.054 6.22604 150.718C6.4222 150.492 6.66087 150.307 6.92841 150.174C7.19595 150.041 7.48713 149.961 7.78532 149.94C8.08351 149.92 8.38287 149.958 8.66631 150.053C8.94976 150.148 9.21173 150.298 9.43727 150.494C9.66282 150.69 9.84751 150.929 9.98082 151.197C10.1141 151.464 10.1934 151.756 10.2142 152.054C10.235 152.353 10.1968 152.652 10.1019 152.936C10.007 153.219 9.85719 153.482 9.66103 153.707C7.66535 155.995 5.70596 158.318 3.85542 160.606C3.64032 160.87 3.36921 161.083 3.06172 161.23C2.75422 161.376 2.41803 161.453 2.07745 161.453C1.55596 161.465 1.04686 161.293 0.638145 160.969ZM16.4342 142.996C16.0066 142.567 15.7664 141.986 15.7664 141.38C15.7664 140.775 16.0066 140.194 16.4342 139.765C18.5509 137.623 20.7643 135.456 23.0018 133.338C23.4492 132.972 24.0186 132.789 24.5955 132.825C25.1723 132.862 25.7138 133.117 26.1109 133.537C26.508 133.957 26.7312 134.513 26.7355 135.091C26.7399 135.669 26.5251 136.228 26.1344 136.654C23.9332 138.736 21.7561 140.866 19.6757 142.972C19.2456 143.397 18.6655 143.635 18.061 143.635C17.4566 143.635 16.8764 143.397 16.4463 142.972L16.4342 142.996ZM33.8511 126.585C33.6558 126.358 33.5074 126.095 33.4144 125.811C33.3215 125.526 33.2857 125.226 33.3094 124.928C33.333 124.63 33.4155 124.339 33.5521 124.073C33.6886 123.807 33.8766 123.57 34.1051 123.377C36.4152 121.417 38.81 119.444 41.1928 117.544C41.4262 117.357 41.6942 117.218 41.9813 117.135C42.2685 117.052 42.5692 117.026 42.8662 117.059C43.1633 117.092 43.4509 117.184 43.7127 117.328C43.9745 117.473 44.2053 117.667 44.3919 117.901C44.5785 118.134 44.7173 118.403 44.8004 118.69C44.8835 118.977 44.9092 119.278 44.876 119.575C44.8429 119.873 44.7516 120.16 44.6073 120.422C44.463 120.684 44.2686 120.915 44.0351 121.102C41.6161 122.978 39.3301 124.914 37.0563 126.851C36.829 127.046 36.5655 127.193 36.2809 127.285C35.9963 127.377 35.6962 127.412 35.3981 127.387C35.1 127.362 34.8098 127.279 34.5443 127.141C34.2787 127.003 34.0431 126.814 33.8511 126.585ZM52.5621 111.698C52.211 111.206 52.0686 110.596 52.1661 109.999C52.2635 109.403 52.5929 108.869 53.0822 108.515C55.5012 106.748 58.0653 104.981 60.6053 103.262C61.1057 102.924 61.72 102.798 62.3132 102.912C62.9063 103.027 63.4297 103.373 63.7681 103.874C64.1065 104.374 64.2323 104.989 64.1178 105.583C64.0032 106.176 63.6577 106.7 63.1573 107.038C60.6657 108.733 58.1742 110.476 55.7431 112.218C55.3564 112.5 54.8909 112.653 54.4126 112.654C54.0507 112.652 53.6945 112.564 53.3729 112.398C53.0513 112.232 52.7735 111.992 52.5621 111.698ZM72.3858 98.3122C72.2273 98.0577 72.1208 97.7742 72.0727 97.4782C72.0246 97.1822 72.0357 96.8796 72.1055 96.5879C72.1753 96.2963 72.3023 96.0214 72.4791 95.7793C72.656 95.5372 72.8792 95.3326 73.1357 95.1776C75.6999 93.5921 78.3487 91.9824 81.0217 90.4816C81.5367 90.2395 82.1237 90.1994 82.6669 90.3692C83.21 90.5391 83.6698 90.9065 83.9554 91.3991C84.241 91.8916 84.3316 92.4733 84.2095 93.0295C84.0873 93.5856 83.7612 94.0757 83.2955 94.403C80.6709 95.928 78.0463 97.4771 75.5184 99.0384C75.2636 99.1955 74.9804 99.3006 74.6849 99.3479C74.3894 99.3952 74.0875 99.3837 73.7964 99.314C73.5054 99.2442 73.231 99.1177 72.9889 98.9417C72.7469 98.7656 72.5419 98.5435 72.3858 98.288V98.3122ZM91.7379 84.999C91.2199 84.6893 90.8453 84.1873 90.6958 83.6023C90.5462 83.0174 90.6339 82.397 90.9396 81.8765C92.5119 79.238 94.1569 76.6117 95.8502 74.058C96.0153 73.8084 96.228 73.5939 96.4761 73.4266C96.7241 73.2594 97.0027 73.1426 97.2958 73.083C97.5889 73.0235 97.8909 73.0223 98.1845 73.0795C98.4781 73.1367 98.7576 73.2512 99.007 73.4165C99.2563 73.5818 99.4707 73.7946 99.6379 74.0428C99.8051 74.2911 99.9218 74.5698 99.9813 74.8631C100.041 75.1564 100.042 75.4586 99.9848 75.7524C99.9276 76.0462 99.8132 76.3259 99.648 76.5754C97.991 79.0686 96.3823 81.6344 94.81 84.2002C94.5005 84.7185 93.9988 85.0933 93.4142 85.243C92.8296 85.3926 92.2097 85.3049 91.6895 84.999H91.7379ZM105.042 65.1139C104.571 64.7358 104.268 64.1874 104.198 63.5872C104.128 62.987 104.296 62.3833 104.667 61.9066C106.578 59.4861 108.562 57.0655 110.582 54.8143C110.981 54.3601 111.545 54.0833 112.148 54.0447C112.751 54.0061 113.345 54.209 113.799 54.6086C114.253 55.0082 114.53 55.5719 114.568 56.1757C114.607 56.7794 114.404 57.3738 114.005 57.828C112.033 60.067 110.098 62.3908 108.248 64.7387C108.034 65.0081 107.761 65.2254 107.451 65.3742C107.141 65.523 106.801 65.5996 106.457 65.598C105.963 65.605 105.479 65.4522 105.079 65.1623L105.042 65.1139ZM120.935 47.2621C120.729 47.0461 120.566 46.7914 120.458 46.5126C120.35 46.2338 120.298 45.9364 120.305 45.6374C120.311 45.3384 120.377 45.0436 120.498 44.77C120.618 44.4964 120.792 44.2492 121.008 44.0427C123.245 41.9126 125.556 39.8309 127.89 37.8581C128.118 37.665 128.381 37.5187 128.666 37.4276C128.95 37.3365 129.25 37.3023 129.548 37.327C129.845 37.3518 130.135 37.4349 130.401 37.5717C130.666 37.7085 130.902 37.8963 131.095 38.1244C131.288 38.3525 131.434 38.6164 131.525 38.901C131.616 39.1856 131.651 39.4854 131.626 39.7832C131.601 40.081 131.518 40.3711 131.381 40.6367C131.245 40.9024 131.057 41.1386 130.829 41.3317C128.567 43.256 126.318 45.2772 124.153 47.3831C123.726 47.7822 123.164 48.003 122.58 48.0004C122.27 47.9982 121.963 47.9315 121.68 47.8044C121.397 47.6773 121.143 47.4926 120.935 47.2621ZM139.235 31.8793C138.894 31.3811 138.763 30.7681 138.872 30.1741C138.981 29.58 139.32 29.0532 139.816 28.7083C142.368 26.9534 144.992 25.2711 147.605 23.6977C148.123 23.3848 148.744 23.2906 149.331 23.4358C149.919 23.5811 150.425 23.9539 150.737 24.4723C151.05 24.9907 151.144 25.6122 150.999 26.2001C150.854 26.7879 150.481 27.294 149.963 27.607C147.423 29.1319 144.883 30.7658 142.416 32.4481C142.169 32.6182 141.891 32.7377 141.598 32.7999C141.305 32.8621 141.003 32.8658 140.708 32.8107C140.414 32.7556 140.133 32.6428 139.882 32.4788C139.632 32.3148 139.416 32.1028 139.247 31.8551L139.235 31.8793Z" fill="url(#paint35_linear_374_16873)"/>
<path d="M182.934 16.6177C183.233 16.6185 183.529 16.5602 183.805 16.4459C184.081 16.3317 184.332 16.1638 184.543 15.952L196.468 4.01854C196.68 3.80715 196.849 3.55604 196.964 3.27954C197.079 3.00305 197.138 2.70658 197.139 2.40708C197.14 2.10757 197.081 1.81088 196.967 1.53396C196.853 1.25703 196.686 1.00529 196.474 0.793108C196.263 0.580926 196.012 0.412458 195.736 0.297321C195.46 0.182185 195.163 0.122636 194.864 0.122074C194.565 0.121512 194.268 0.179949 193.992 0.294046C193.715 0.408144 193.463 0.575669 193.251 0.787057L181.325 12.7326C181.007 13.0509 180.79 13.4564 180.702 13.898C180.615 14.3396 180.66 14.7973 180.832 15.2133C181.004 15.6292 181.296 15.9847 181.67 16.2347C182.044 16.4847 182.484 16.618 182.934 16.6177Z" fill="url(#paint36_linear_374_16873)"/>
<path d="M194.715 16.4968C195.165 16.4938 195.604 16.358 195.977 16.1064C196.35 15.8549 196.641 15.4987 196.812 15.0827C196.984 14.6666 197.029 14.2091 196.942 13.7674C196.855 13.3257 196.64 12.9195 196.324 12.5997L184.434 0.666196C184 0.269873 183.429 0.0563322 182.841 0.0699494C182.254 0.0835665 181.694 0.323294 181.278 0.739316C180.862 1.15534 180.623 1.71566 180.609 2.30385C180.595 2.89203 180.809 3.46285 181.205 3.89767L193.143 15.8312C193.558 16.2523 194.124 16.4916 194.715 16.4968Z" fill="url(#paint37_linear_374_16873)"/>
<path d="M498.082 287.106L488.745 272.703C488.52 272.34 488.401 271.921 488.401 271.493C488.401 271.065 488.52 270.646 488.745 270.283L498.082 255.88C498.288 255.56 498.571 255.297 498.905 255.115C499.239 254.933 499.613 254.838 499.993 254.838C500.374 254.838 500.748 254.933 501.081 255.115C501.415 255.297 501.698 255.56 501.904 255.88L511.242 270.283C511.467 270.646 511.586 271.065 511.586 271.493C511.586 271.921 511.467 272.34 511.242 272.703L501.928 287.106C501.722 287.425 501.44 287.688 501.106 287.87C500.772 288.053 500.398 288.148 500.017 288.148C499.637 288.148 499.263 288.053 498.929 287.87C498.595 287.688 498.313 287.425 498.106 287.106H498.082ZM499.993 261.254L493.377 271.469L499.993 281.684L506.609 271.469L499.993 261.254Z" fill="url(#paint38_linear_374_16873)"/>
</g>
<g clip-path="url(#clip2_374_16873)">
<path d="M80.3295 404.775L4.45508 404.679C4.45508 404.679 8.26069 320.239 19.5063 281.169H80.3295V404.775Z" fill="#5992ED"/>
<path d="M90.2145 404.736L166.07 404.641C166.07 404.641 157.507 320.239 132.485 281.207H71.6621L90.2145 404.736Z" fill="#5992ED"/>
<path d="M4.45508 351.259H162.978L132.885 207.281L91.4894 171.684H70.2826L28.8776 203.018L4.45508 351.259Z" fill="#333333"/>
<path d="M132.895 207.281L141.904 284.147L161.694 291.759C161.694 291.759 161.941 241.67 132.895 207.281Z" fill="#333333"/>
<path d="M67.2855 125.629L50.9404 148.913L74.1737 154.48L67.2855 125.629Z" fill="black"/>
<path d="M102.883 142.821C107.091 132.659 102.266 121.009 92.106 116.799C81.9456 112.59 70.2972 117.416 66.0886 127.578C61.88 137.74 66.7049 149.39 76.8653 153.599C87.0258 157.808 98.6742 152.983 102.883 142.821Z" fill="black"/>
<path d="M83.8212 120.7C90.6713 124.935 97.1408 126.8 98.3776 124.868C99.6145 122.936 94.9811 117.95 88.1786 113.697C81.3761 109.443 74.8589 107.597 73.6221 109.529C72.3853 111.461 76.9806 116.475 83.8212 120.7Z" fill="black"/>
<path d="M88.6542 121.88C92.6596 128.855 97.5022 133.593 99.4716 132.471C101.441 131.348 99.7761 124.763 95.7611 117.788C91.7462 110.813 86.9131 106.084 84.9437 107.198C82.9743 108.311 84.6392 114.905 88.6542 121.88Z" fill="black"/>
<path d="M62.5955 138.826L53.9282 157.419L79.8825 162.681L62.5955 138.826Z" fill="black"/>
<path d="M92.2121 174.948L69.4546 172.217V145.726H92.2121V174.948Z" fill="#A1673A"/>
<g style="mix-blend-mode:soft-light">
<path d="M79.0166 161.036H92.2126V168.173L79.0166 161.036Z" fill="black"/>
</g>
<path d="M92.6214 163.909L70.292 160.027V136.238C70.292 127.531 77.6844 120.48 86.7988 120.48C95.9133 120.48 103.306 127.531 103.306 136.238V154.983C103.306 161.492 98.7104 165.079 92.6214 163.909Z" fill="#A1673A"/>
<path d="M93.2404 151.759C92.289 151.759 91.4803 153.786 91.5279 156.25C91.5754 158.715 92.4127 160.684 93.4307 160.665C94.4487 160.646 95.2003 158.638 95.1527 156.183C95.1052 153.728 94.2299 151.759 93.2404 151.759Z" fill="black"/>
<path d="M67.2854 150.255C71.4416 150.255 74.811 146.885 74.811 142.728C74.811 138.571 71.4416 135.201 67.2854 135.201C63.1291 135.201 59.7598 138.571 59.7598 142.728C59.7598 146.885 63.1291 150.255 67.2854 150.255Z" fill="#A1673A"/>
<path d="M87.9219 150.958L98.3873 151.662C98.3873 151.662 92.6979 158.941 87.9219 150.958Z" fill="white"/>
<path d="M94.3151 147.733C94.6421 147.719 94.9532 147.587 95.1903 147.362C95.3408 147.219 95.4554 147.043 95.5248 146.848C95.5943 146.653 95.6166 146.444 95.5899 146.239V144.773H94.4102V146.505H94.2389H91.3467V147.704H94.3055L94.3151 147.733Z" fill="black"/>
<path d="M69.4551 172.217L92.2126 174.948C92.2126 174.948 90.9568 180.172 84.4968 180.172C78.0367 180.172 69.4551 172.217 69.4551 172.217Z" fill="#A1673A"/>
<path d="M93.3728 148.656C93.0113 149.608 94.5906 151.054 96.8835 151.939C99.1764 152.824 101.327 152.776 101.641 151.853C101.954 150.93 100.423 149.456 98.1299 148.571C95.837 147.686 93.7249 147.733 93.3728 148.656Z" fill="black"/>
<path d="M84.1926 151.226C84.4209 152.177 86.8375 152.453 89.5965 151.797C92.3556 151.14 94.4011 149.856 94.1728 148.904C93.9444 147.953 91.5279 147.686 88.7688 148.333C86.0097 148.98 83.9547 150.255 84.1926 151.226Z" fill="black"/>
<path d="M70.3111 145.821H75.7246V122.042H70.3111V145.821Z" fill="black"/>
<path d="M74.6308 131.957H73.6794V119.301H82.2896V124.297C82.2896 126.329 81.4826 128.277 80.0463 129.713C78.61 131.15 76.662 131.957 74.6308 131.957Z" fill="black"/>
<path d="M79.9774 124.602H94.1914V119.301H79.9774V124.602Z" fill="black"/>
<path d="M135.114 284.862C147.675 274.391 149.37 255.718 138.901 243.155C128.432 230.593 109.762 228.897 97.2013 239.367C84.6403 249.838 82.9445 268.51 93.4136 281.073C103.883 293.636 122.552 295.332 135.114 284.862Z" fill="#A1673A"/>
<path d="M129.232 312.141L38.3252 283.804L53.3288 235.656L144.235 264.041C147.396 265.026 150.332 266.623 152.875 268.743C155.418 270.863 157.519 273.463 159.057 276.395C160.595 279.327 161.541 282.533 161.84 285.831C162.139 289.128 161.785 292.452 160.799 295.613C158.803 301.99 154.356 307.314 148.437 310.413C142.517 313.513 135.609 314.134 129.232 312.141Z" fill="#A1673A"/>
<g style="mix-blend-mode:soft-light">
<path d="M121.402 262.118L94.8957 301.436L64.584 294.004L121.402 262.118Z" fill="black"/>
</g>
<path d="M71.764 266.387C77.0037 249.792 69.9897 232.782 56.0977 228.395C42.2057 224.007 26.6964 233.903 21.4566 250.498C16.2169 267.093 23.2309 284.103 37.1229 288.49C51.0149 292.878 66.5242 282.982 71.764 266.387Z" fill="#A1673A"/>
<g style="mix-blend-mode:soft-light">
<path d="M52.7197 255.267L82.8126 244.848L72.7943 241.727L52.7197 255.267Z" fill="black"/>
</g>
<path d="M17.0327 290.37C24.0826 303.216 36.2986 313.493 49.1425 306.451C55.3065 303.062 59.8719 297.362 61.8345 290.606C63.7971 283.85 62.9962 276.591 59.608 270.426L28.8776 203.019C-1.89073 239.862 17.0327 290.37 17.0327 290.37Z" fill="#333333"/>
<path d="M56.3254 309.373L133.522 260.235C133.522 260.235 113.914 237.816 98.3203 239.472L30.8088 262.852C24.6473 266.241 20.0838 271.939 18.1213 278.693C16.1588 285.446 16.9581 292.703 20.3433 298.868C23.7296 305.025 29.4186 309.589 36.1635 311.558C42.9085 313.527 50.1588 312.741 56.3254 309.373Z" fill="#A1673A"/>
<g style="mix-blend-mode:soft-light">
<path d="M86.09 148.243C87.9329 146.399 87.9329 143.411 86.09 141.568C84.2471 139.725 81.2593 139.725 79.4164 141.568C77.5735 143.411 77.5735 146.399 79.4164 148.243C81.2593 150.086 84.2471 150.086 86.09 148.243Z" fill="black"/>
</g>
<g style="mix-blend-mode:soft-light">
<path d="M103.315 140.464V149.028C103.006 149.121 102.686 149.169 102.364 149.171C101.254 149.097 100.218 148.588 99.4818 147.754C98.7458 146.92 98.3693 145.828 98.4345 144.718C98.3871 143.624 98.7681 142.555 99.4965 141.737C100.225 140.92 101.243 140.419 102.335 140.341C102.666 140.334 102.996 140.375 103.315 140.464Z" fill="black"/>
</g>
<path d="M86.9889 139.664L83.6685 140.168L86.8557 141.957C87.0468 141.819 87.2025 141.637 87.31 141.427C87.4175 141.217 87.4737 140.985 87.4741 140.749C87.4734 140.544 87.4299 140.342 87.3463 140.155C87.2628 139.968 87.141 139.801 86.9889 139.664Z" fill="black"/>
<path d="M98.7865 139.674C98.6403 139.812 98.5237 139.979 98.4436 140.164C98.3635 140.349 98.3215 140.548 98.3203 140.749C98.3199 140.972 98.3702 141.193 98.4674 141.394C98.5646 141.595 98.7063 141.772 98.8816 141.91L101.926 140.169L98.7865 139.674Z" fill="black"/>
</g>
<g clip-path="url(#clip3_374_16873)">
<path d="M301.927 273.117L331.163 279.291L329.196 249.922L327.228 221.194L324.454 181.125L306.649 221.204L293.861 249.932L293.222 251.391C292.335 253.386 291.858 255.539 291.817 257.723C291.777 259.906 292.174 262.076 292.986 264.102C293.798 266.129 295.008 267.971 296.544 269.519C298.08 271.068 299.911 272.292 301.927 273.117Z" fill="#FDF5E6"/>
<path d="M404.131 119.222C412.51 110.822 412.51 97.2034 404.131 88.8036C395.753 80.4039 382.169 80.4039 373.79 88.8036C365.412 97.2034 365.412 110.822 373.79 119.222C382.169 127.622 395.753 127.622 404.131 119.222Z" fill="black"/>
<path d="M343.134 357.97L450.003 345.347V332.714H343.134V357.97Z" fill="#1351B4"/>
<path d="M399.795 409.203L392.988 332.714H331.527L334.586 404.223L399.795 409.203Z" fill="#1351B4"/>
<path d="M397.956 329.952L419.686 478.493H490.148L464.798 332.713L464.159 329.952H397.956Z" fill="#1351B4"/>
<path d="M444.052 189.213L447.455 289.933L463.962 281.718C469.102 279.166 473.037 274.692 474.919 269.26C476.801 263.828 476.48 257.872 474.025 252.674L444.052 189.213Z" fill="#FDF5E6"/>
<path d="M504.107 234.774L468.88 230.612C465.578 230.181 462.223 230.416 459.013 231.306C455.803 232.195 452.803 233.719 450.19 235.79C443.088 241.549 439.792 250.671 442.517 260.839C444.799 269.36 451.194 273.985 459.004 275.543C463.165 276.316 467.444 276.154 471.535 275.069C475.626 273.985 479.426 272.004 482.662 269.271L503.9 251.648L504.107 234.774Z" fill="#F37453"/>
<path d="M321.887 326.165C321.866 327.341 322.08 328.509 322.516 329.601C322.952 330.693 323.602 331.686 324.427 332.523C325.252 333.359 326.235 334.021 327.32 334.471C328.404 334.92 329.567 335.147 330.74 335.139H464.877C466.064 335.14 467.237 334.875 468.309 334.363C469.381 333.852 470.326 333.107 471.074 332.182C471.823 331.258 472.356 330.178 472.635 329.021C472.914 327.864 472.932 326.659 472.687 325.494L471.094 317.871L462.083 274.705L453.407 233.216L451.331 223.295L448.754 210.938L444.357 189.902L397.287 146.954L372.763 143.995L324.454 181.125L323.933 210.948L323.707 223.305L323.529 233.226L322.802 274.715L322.034 317.881L321.887 326.165Z" fill="#FDF5E6"/>
<path d="M403.956 156.452L391.158 173.848L367.156 152.606L387.47 142.586L403.956 156.452Z" fill="#DBE8FB"/>
<path d="M372.764 142.586L390.569 152.093L378.538 165.653L360.822 153.178L372.764 142.586Z" fill="#5992ED"/>
<path d="M397.287 146.963L391.011 152.091L403.012 164.004L408.551 157.229L397.287 146.963Z" fill="#5992ED"/>
<path d="M397.277 146.964L372.763 144.005V115.396H397.277V146.964Z" fill="#F37453"/>
<path d="M397.72 135.04L373.659 130.829V105.119C373.659 95.7209 381.627 88.0977 391.454 88.0977C401.291 88.0977 409.239 95.7209 409.239 105.119V125.396C409.239 132.427 404.281 136.293 397.72 135.04Z" fill="#F37453"/>
<path d="M398.556 123.63C397.484 123.63 396.657 125.819 396.707 128.482C396.756 131.145 397.69 133.265 398.733 133.245C399.776 133.226 400.632 131.056 400.582 128.403C400.533 125.75 399.628 123.61 398.556 123.63Z" fill="black"/>
<g style="mix-blend-mode:soft-light">
<path d="M409.249 109.716V118.996C408.909 119.106 408.554 119.162 408.196 119.163C407.002 119.082 405.887 118.533 405.094 117.634C404.3 116.735 403.892 115.559 403.957 114.36C403.884 113.159 404.289 111.978 405.084 111.076C405.879 110.173 406.998 109.624 408.196 109.548C408.554 109.549 408.909 109.605 409.249 109.716Z" fill="black"/>
</g>
<path d="M378.313 114.022C379.343 109.649 376.641 105.267 372.279 104.235C367.917 103.203 363.546 105.911 362.516 110.285C361.486 114.658 364.188 119.04 368.55 120.072C372.913 121.104 377.283 118.396 378.313 114.022Z" fill="#F37453"/>
<g style="mix-blend-mode:soft-light">
<path d="M392.152 114.508C392.152 115.516 391.854 116.502 391.295 117.34C390.736 118.179 389.942 118.832 389.012 119.218C388.083 119.604 387.061 119.705 386.074 119.508C385.087 119.312 384.181 118.826 383.47 118.113C382.759 117.4 382.274 116.492 382.078 115.503C381.882 114.513 381.983 113.488 382.368 112.557C382.753 111.625 383.404 110.829 384.241 110.268C385.077 109.708 386.06 109.409 387.066 109.409C387.734 109.408 388.396 109.539 389.014 109.795C389.632 110.05 390.193 110.426 390.665 110.9C391.138 111.373 391.512 111.936 391.767 112.555C392.023 113.174 392.153 113.838 392.152 114.508Z" fill="black"/>
</g>
<path d="M392.152 110.021C392.152 110.339 392.058 110.649 391.882 110.914C391.706 111.178 391.455 111.384 391.162 111.506C390.869 111.627 390.547 111.659 390.236 111.597C389.925 111.535 389.639 111.382 389.415 111.157C389.191 110.932 389.038 110.646 388.976 110.334C388.914 110.022 388.946 109.699 389.067 109.405C389.189 109.112 389.394 108.861 389.658 108.684C389.922 108.507 390.232 108.413 390.549 108.413C390.974 108.413 391.382 108.582 391.683 108.884C391.983 109.185 392.152 109.594 392.152 110.021Z" fill="black"/>
<path d="M406.219 110.021C406.219 110.339 406.125 110.649 405.949 110.914C405.773 111.178 405.522 111.384 405.229 111.506C404.936 111.627 404.614 111.659 404.303 111.597C403.992 111.535 403.706 111.382 403.482 111.157C403.258 110.932 403.105 110.646 403.043 110.334C402.981 110.022 403.013 109.699 403.134 109.405C403.256 109.112 403.461 108.861 403.725 108.684C403.988 108.507 404.299 108.413 404.616 108.413C405.041 108.413 405.449 108.582 405.749 108.884C406.05 109.185 406.219 109.594 406.219 110.021Z" fill="black"/>
<path d="M399.549 117.565C399.916 117.559 400.267 117.415 400.533 117.161C400.696 117.008 400.821 116.818 400.896 116.607C400.971 116.396 400.995 116.17 400.966 115.948V114.36H399.687V116.224H399.628H399.451H396.431V117.506H399.451L399.549 117.565Z" fill="black"/>
<path d="M372.764 144.005L397.277 146.963C397.277 146.963 395.93 152.604 388.975 152.604C382.02 152.604 372.764 144.005 372.764 144.005Z" fill="#F37453"/>
<path d="M373.678 115.484H379.512V89.794H373.678V115.484Z" fill="black"/>
<path d="M382.148 100.514H377.279V86.8352H386.594V96.0561C386.594 97.2383 386.126 98.3721 385.292 99.2081C384.458 100.044 383.327 100.514 382.148 100.514Z" fill="black"/>
<path d="M384.106 92.5752H399.422V86.8454H384.106V92.5752Z" fill="black"/>
<path d="M379.512 113.433V118.827L384.587 120.721C385.552 121.08 386.415 121.671 387.101 122.441C387.787 123.211 388.275 124.137 388.522 125.139C388.948 126.864 389.938 128.396 391.334 129.492C392.73 130.588 394.452 131.183 396.225 131.184H399.363C406.839 131.184 407.537 123.295 407.537 123.295L409.249 118.995V130.425C409.249 130.425 410.36 140.691 397.277 140.691C384.194 140.691 373.668 127.229 373.668 127.229V115.494L379.512 113.433Z" fill="black"/>
<path d="M398.33 118.128V120.505L393.411 121.146C392.939 121.213 392.506 121.45 392.195 121.813C391.884 122.175 391.715 122.639 391.719 123.118V131.994L389.398 131.175V122.664C389.398 121.808 389.702 120.98 390.256 120.328C390.809 119.676 391.575 119.242 392.418 119.104L398.33 118.128Z" fill="black"/>
<path d="M399.52 118.128V120.505L404.439 121.146C404.911 121.213 405.344 121.45 405.655 121.813C405.966 122.175 406.135 122.639 406.13 123.118V131.994L408.442 131.175V122.664C408.442 121.808 408.138 120.98 407.584 120.328C407.031 119.676 406.265 119.242 405.422 119.104L399.52 118.128Z" fill="black"/>
<path d="M404.321 122.437C404.321 122.437 401.783 126.233 398.645 126.233C395.507 126.233 392.979 122.437 392.979 122.437H404.321Z" fill="white"/>
<path d="M404.753 94.341H391.454C391.454 92.7717 392.075 91.2666 393.182 90.1569C394.289 89.0472 395.79 88.4238 397.356 88.4238H410.665C410.665 89.2017 410.512 89.972 410.215 90.6905C409.918 91.4091 409.482 92.0618 408.933 92.6114C408.384 93.161 407.732 93.5966 407.015 93.8934C406.298 94.1902 405.529 94.3423 404.753 94.341Z" fill="black"/>
<path d="M404.143 90.3957L391.414 94.3405C390.967 92.8418 391.13 91.2264 391.867 89.8478C392.604 88.4691 393.856 87.4392 395.349 86.9835L408.049 83.0781C408.485 84.5676 408.321 86.1695 407.59 87.5384C406.86 88.9072 405.622 89.9334 404.143 90.3957Z" fill="black"/>
<path d="M494.215 255.305L487.545 252.804C484.417 251.631 481.882 249.26 480.498 246.213C479.113 243.167 478.993 239.693 480.163 236.558L488.052 215.415L503.835 221.334C506.963 222.507 509.497 224.877 510.882 227.924C512.266 230.971 512.386 234.444 511.216 237.58L506.736 249.587C505.832 252.01 504.005 253.974 501.657 255.046C499.309 256.118 496.632 256.212 494.215 255.305Z" fill="#F37453"/>
<path d="M365.976 236.008L330.779 231.846C327.477 231.416 324.122 231.653 320.913 232.542C317.703 233.431 314.703 234.955 312.089 237.023C304.997 242.783 301.701 251.905 304.426 262.073C306.708 270.594 313.102 275.219 320.903 276.777C325.064 277.55 329.344 277.389 333.435 276.304C337.525 275.22 341.325 273.239 344.561 270.505L365.809 252.881L365.976 236.008Z" fill="#F37453"/>
<path d="M367.656 230.927L394.012 228.351L395.087 239.403C395.365 242.253 394.501 245.097 392.687 247.31C390.872 249.522 388.255 250.921 385.412 251.199L359.056 253.776L357.981 242.723C357.844 241.312 357.985 239.887 358.397 238.531C358.809 237.174 359.483 235.912 360.382 234.817C361.28 233.721 362.385 232.814 363.633 232.147C364.881 231.479 366.248 231.065 367.656 230.927Z" fill="#F37453"/>
</g>
<g clip-path="url(#clip4_374_16873)">
<path d="M285.517 233.74C285.517 233.74 336.641 269.055 287.949 350.623H270.86L280.601 237.395L285.517 233.74Z" fill="#B35649"/>
<path d="M223.641 221.986C223.071 223.837 222.408 225.658 221.656 227.443L221.498 227.837L213.992 245.665L186.464 310.944L139.455 304.12C142.849 284.084 151.143 265.198 163.599 249.143C176.055 233.088 192.287 220.363 210.85 212.099C212.283 211.481 213.663 210.903 215.03 210.377L215.385 210.245L216.24 209.917C225.652 206.433 226.415 213.059 223.641 221.986Z" fill="#B35649"/>
<path d="M285.518 233.74L250.024 208.615H218.329C218.329 208.615 196.652 216.701 184.479 227.653L192.774 351.057L287.95 350.623C287.95 350.623 290.96 239.617 285.518 233.74Z" fill="black"/>
<path d="M226.723 132.506C229.339 121.424 222.477 110.321 211.397 107.706C200.317 105.09 189.216 111.953 186.601 123.034C183.986 134.116 190.848 145.219 201.927 147.834C213.007 150.45 224.108 143.587 226.723 132.506Z" fill="#B35649"/>
<path d="M234.564 182.162C251.459 182.162 265.155 169.088 265.155 152.961C265.155 136.833 251.459 123.76 234.564 123.76C217.67 123.76 203.974 136.833 203.974 152.961C203.974 169.088 217.67 182.162 234.564 182.162Z" fill="#B35649"/>
<path d="M250.182 172.262H218.947V208.628H250.182V172.262Z" fill="#B35649"/>
<g style="mix-blend-mode:soft-light">
<path d="M250.182 194.547L230.949 192.167L250.182 203.908V194.547Z" fill="#332938"/>
</g>
<path d="M220.051 194.35V156.761C220.051 143.837 230.187 133.345 242.715 133.345C255.229 133.345 265.378 143.863 265.378 156.761V179.467C265.417 207.077 220.051 194.35 220.051 194.35Z" fill="#B35649"/>
<g style="mix-blend-mode:soft-light">
<path d="M265.418 165.004V176.837C264.992 176.967 264.549 177.033 264.103 177.034C262.58 176.933 261.159 176.233 260.149 175.088C259.14 173.942 258.624 172.444 258.714 170.92C258.624 169.396 259.14 167.898 260.149 166.753C261.159 165.608 262.58 164.908 264.103 164.807C264.549 164.807 264.992 164.874 265.418 165.004Z" fill="#332938"/>
</g>
<path d="M218.947 177.772C224.654 177.772 229.28 173.145 229.28 167.438C229.28 161.73 224.654 157.104 218.947 157.104C213.241 157.104 208.615 161.73 208.615 167.438C208.615 173.145 213.241 177.772 218.947 177.772Z" fill="#B35649"/>
<g style="mix-blend-mode:soft-light">
<path d="M237.194 177.599C240.773 177.599 243.675 174.697 243.675 171.118C243.675 167.538 240.773 164.636 237.194 164.636C233.614 164.636 230.713 167.538 230.713 171.118C230.713 174.697 233.614 177.599 237.194 177.599Z" fill="#332938"/>
</g>
<path d="M243.373 178.244L257.833 178.809C257.833 178.809 250.287 189.012 243.373 178.244Z" fill="white"/>
<path d="M243.714 165.425C243.714 165.831 243.594 166.227 243.368 166.565C243.143 166.902 242.823 167.165 242.448 167.32C242.073 167.475 241.661 167.516 241.263 167.437C240.865 167.358 240.5 167.162 240.213 166.875C239.926 166.589 239.731 166.223 239.652 165.825C239.573 165.427 239.613 165.015 239.768 164.64C239.924 164.265 240.186 163.945 240.524 163.72C240.861 163.494 241.257 163.374 241.663 163.374C242.207 163.374 242.729 163.59 243.113 163.975C243.498 164.359 243.714 164.881 243.714 165.425Z" fill="#332938"/>
<path d="M261.566 165.425C261.566 165.83 261.446 166.225 261.222 166.562C260.998 166.899 260.679 167.162 260.306 167.318C259.933 167.474 259.522 167.516 259.125 167.439C258.728 167.362 258.362 167.169 258.074 166.885C257.786 166.601 257.589 166.238 257.507 165.841C257.425 165.445 257.462 165.034 257.613 164.659C257.764 164.283 258.023 163.961 258.357 163.733C258.69 163.504 259.084 163.38 259.489 163.374C259.761 163.369 260.031 163.418 260.284 163.519C260.536 163.62 260.766 163.771 260.96 163.962C261.153 164.153 261.307 164.381 261.411 164.632C261.515 164.884 261.568 165.153 261.566 165.425Z" fill="#332938"/>
<path d="M253.008 174.996H252.706L248.184 174.207L248.447 172.603L252.969 173.34L253.205 173.116L252.127 164.176L253.757 163.979L254.822 172.919C254.856 173.203 254.824 173.49 254.728 173.759C254.632 174.028 254.475 174.272 254.27 174.47C253.935 174.805 253.482 174.994 253.008 174.996Z" fill="#332938"/>
<path d="M218.553 127.771H240.822C247.753 127.771 254.401 130.524 259.302 135.426C264.203 140.328 266.956 146.976 266.956 153.908V155.052H245.831C238.596 155.052 231.658 152.178 226.543 147.061C221.427 141.945 218.553 135.006 218.553 127.771Z" fill="#B35649"/>
<path d="M224.534 174.707L215.477 142.312H224.534V174.707Z" fill="#B35649"/>
<g style="mix-blend-mode:soft-light">
<path d="M194.445 259.747L192.666 260.165L206.672 319.797L208.451 319.379L194.445 259.747Z" fill="#332938"/>
</g>
<g style="mix-blend-mode:soft-light">
<path d="M197.239 261.496L195.746 271.189L197.552 271.468L199.045 261.774L197.239 261.496Z" fill="#332938"/>
</g>
<g style="mix-blend-mode:soft-light">
<path d="M283.497 250.681L267.979 333.69L269.776 334.026L285.293 251.017L283.497 250.681Z" fill="#332938"/>
</g>
<g style="mix-blend-mode:soft-light">
<path d="M278.936 251.907L277.211 252.509L281.157 263.817L282.882 263.215L278.936 251.907Z" fill="#332938"/>
</g>
<g style="mix-blend-mode:soft-light">
<path d="M254.441 130.821C250.65 127.763 246.205 125.62 241.451 124.56C236.697 123.499 231.763 123.55 227.032 124.707C226.458 120.904 224.832 117.337 222.336 114.41C219.841 111.484 216.576 109.314 212.911 108.148C209.246 106.981 205.328 106.863 201.601 107.808C197.873 108.754 194.484 110.724 191.817 113.496C189.151 116.268 187.314 119.731 186.514 123.493C185.714 127.255 185.983 131.166 187.29 134.784C188.598 138.401 190.891 141.58 193.912 143.961C196.933 146.341 200.559 147.829 204.381 148.255C204.113 149.809 203.976 151.384 203.974 152.962C203.977 158.485 205.605 163.885 208.654 168.489C208.654 168.134 208.654 167.792 208.654 167.437C208.661 164.707 209.747 162.09 211.675 160.156C213.603 158.223 216.217 157.13 218.947 157.116H219.617L224.534 174.695V146.059C226.906 148.878 229.866 151.144 233.207 152.697C236.548 154.251 240.187 155.055 243.871 155.052H266.955V151.976C266.947 147.653 265.782 143.412 263.581 139.692C261.38 135.973 258.224 132.909 254.441 130.821Z" fill="#332938"/>
</g>
<path d="M139.455 304.107H244.372C244.372 304.107 225.718 365.56 170.387 351.702C131.778 342.078 139.455 304.107 139.455 304.107Z" fill="#B35649"/>
<g style="mix-blend-mode:soft-light">
<path d="M217.264 303.239H185.083V304.962H217.264V303.239Z" fill="#332938"/>
</g>
<path d="M236.55 297.796C236.55 297.796 257.346 313.573 254.257 316.203C251.168 318.832 233.224 304.79 233.224 304.79L236.55 297.796Z" fill="#B35649"/>
<path d="M244.121 304.081L219.407 318.833L209.785 306.092C209.785 306.092 222.681 283.097 244.266 283.334L244.121 304.081Z" fill="#B35649"/>
<path d="M234.38 287.805C234.38 287.805 268.047 304.423 264.405 308.092C260.764 311.76 230.962 297.074 230.962 297.074L234.38 287.805Z" fill="#B35649"/>
<path d="M244.266 283.333C252.39 283.754 275.501 297.493 272.254 300.767C269.007 304.041 239.258 290.735 239.258 290.735L244.266 283.333Z" fill="#A35A5F"/>
<path d="M244.266 283.333C252.39 283.754 275.501 297.493 272.254 300.767C269.007 304.041 239.258 290.735 239.258 290.735L244.266 283.333Z" fill="#B35649"/>
<g style="mix-blend-mode:soft-light">
<path d="M230.95 317.807C229.206 317.876 227.47 317.543 225.875 316.834L226.677 315.309C226.677 315.309 229.569 316.755 234.696 315.65C236.08 315.432 237.383 314.857 238.475 313.98C239.568 313.104 240.414 311.958 240.927 310.654L242.584 311.154C241.981 312.753 240.969 314.166 239.65 315.253C238.33 316.34 236.749 317.061 235.064 317.346C233.712 317.641 232.334 317.796 230.95 317.807Z" fill="#332938"/>
</g>
<path d="M306.958 222.013C306.958 222.013 253.415 348.756 297.927 356.198C353.297 365.401 327.15 230.808 327.15 230.808L306.958 222.013Z" fill="#B35649"/>
<path d="M301.399 210.842L323.167 211.096C324.147 211.108 324.951 210.323 324.962 209.342L325.413 170.809C325.424 169.829 324.639 169.025 323.659 169.014L301.891 168.759C300.911 168.748 300.107 169.533 300.096 170.513L299.645 209.046C299.634 210.026 300.419 210.83 301.399 210.842Z" fill="black"/>
<path d="M329.872 222.486C332.343 214.598 329.872 186.988 325.652 188.881C321.432 190.774 323.496 223.643 323.496 223.643L329.872 222.486Z" fill="#B35649"/>
<path d="M294.167 206.446C294.167 207.406 294.167 208.405 294.167 209.405C294.693 222.973 299.492 238.461 312.019 241.314C331.528 245.745 330.476 212.218 330.476 212.218C330.476 212.218 304.185 181.979 298.006 188.986C296.677 190.813 295.778 192.916 295.377 195.139C295.245 195.705 295.114 196.296 295.009 196.914C294.462 200.063 294.181 203.251 294.167 206.446Z" fill="#B35649"/>
<g style="mix-blend-mode:soft-light">
<path d="M294.982 196.915L304.277 206.499L305.341 205.461L295.351 195.14C295.258 195.705 295.127 196.297 294.982 196.915Z" fill="#332938"/>
</g>
<g style="mix-blend-mode:soft-light">
<path d="M294.167 206.445C294.167 207.405 294.167 208.404 294.167 209.404L299.597 218.305L300.911 217.516L294.167 206.445Z" fill="#332938"/>
</g>
<path d="M321.051 182.99C321.4 182.99 321.734 182.851 321.98 182.605C322.227 182.358 322.365 182.024 322.365 181.675L322.457 173.786C322.457 173.438 322.319 173.103 322.072 172.857C321.826 172.61 321.492 172.472 321.143 172.472C320.794 172.472 320.46 172.61 320.213 172.857C319.967 173.103 319.828 173.438 319.828 173.786L319.736 181.675C319.736 182.024 319.875 182.358 320.121 182.605C320.368 182.851 320.702 182.99 321.051 182.99Z" fill="white"/>
<g style="mix-blend-mode:soft-light">
<path d="M296.081 246.213L288.301 273.17L290.057 273.677L297.836 246.72L296.081 246.213Z" fill="#332938"/>
</g>
</g>
</g>
<defs>
<linearGradient id="paint0_linear_374_16873" x1="151.553" y1="363.292" x2="42.3202" y2="328.643" gradientUnits="userSpaceOnUse">
<stop stop-color="#5992ED"/>
<stop offset="1" stop-color="#155BCB"/>
</linearGradient>
<linearGradient id="paint1_linear_374_16873" x1="237.531" y1="-1.62587" x2="204.521" y2="268.973" gradientUnits="userSpaceOnUse">
<stop stop-color="#5992ED"/>
<stop offset="1" stop-color="#155BCB"/>
</linearGradient>
<linearGradient id="paint2_linear_374_16873" x1="451.843" y1="112.546" x2="433.979" y2="112.546" gradientUnits="userSpaceOnUse">
<stop stop-color="#5992ED"/>
<stop offset="1" stop-color="#155BCB"/>
</linearGradient>
<linearGradient id="paint3_linear_374_16873" x1="449.908" y1="118.633" x2="407.878" y2="118.633" gradientUnits="userSpaceOnUse">
<stop stop-color="#5992ED"/>
<stop offset="1" stop-color="#155BCB"/>
</linearGradient>
<linearGradient id="paint4_linear_374_16873" x1="442.373" y1="124.77" x2="387.401" y2="124.77" gradientUnits="userSpaceOnUse">
<stop stop-color="#5992ED"/>
<stop offset="1" stop-color="#155BCB"/>
</linearGradient>
<linearGradient id="paint5_linear_374_16873" x1="433.132" y1="130.906" x2="368.605" y2="130.906" gradientUnits="userSpaceOnUse">
<stop stop-color="#5992ED"/>
<stop offset="1" stop-color="#155BCB"/>
</linearGradient>
<linearGradient id="paint6_linear_374_16873" x1="422.924" y1="137.054" x2="350.789" y2="137.054" gradientUnits="userSpaceOnUse">
<stop stop-color="#5992ED"/>
<stop offset="1" stop-color="#155BCB"/>
</linearGradient>
<linearGradient id="paint7_linear_374_16873" x1="412.063" y1="143.179" x2="333.638" y2="143.179" gradientUnits="userSpaceOnUse">
<stop stop-color="#5992ED"/>
<stop offset="1" stop-color="#155BCB"/>
</linearGradient>
<linearGradient id="paint8_linear_374_16873" x1="400.669" y1="149.302" x2="317.02" y2="149.302" gradientUnits="userSpaceOnUse">
<stop stop-color="#5992ED"/>
<stop offset="1" stop-color="#155BCB"/>
</linearGradient>
<linearGradient id="paint9_linear_374_16873" x1="388.876" y1="155.45" x2="300.788" y2="155.45" gradientUnits="userSpaceOnUse">
<stop stop-color="#5992ED"/>
<stop offset="1" stop-color="#155BCB"/>
</linearGradient>
<linearGradient id="paint10_linear_374_16873" x1="376.721" y1="161.575" x2="284.908" y2="161.575" gradientUnits="userSpaceOnUse">
<stop stop-color="#5992ED"/>
<stop offset="1" stop-color="#155BCB"/>
</linearGradient>
<linearGradient id="paint11_linear_374_16873" x1="364.263" y1="167.711" x2="269.353" y2="167.711" gradientUnits="userSpaceOnUse">
<stop stop-color="#5992ED"/>
<stop offset="1" stop-color="#155BCB"/>
</linearGradient>
<linearGradient id="paint12_linear_374_16873" x1="351.527" y1="173.835" x2="254.078" y2="173.835" gradientUnits="userSpaceOnUse">
<stop stop-color="#5992ED"/>
<stop offset="1" stop-color="#155BCB"/>
</linearGradient>
<linearGradient id="paint13_linear_374_16873" x1="338.537" y1="179.971" x2="239.043" y2="179.971" gradientUnits="userSpaceOnUse">
<stop stop-color="#5992ED"/>
<stop offset="1" stop-color="#155BCB"/>
</linearGradient>
<linearGradient id="paint14_linear_374_16873" x1="325.281" y1="186.591" x2="224.662" y2="186.591" gradientUnits="userSpaceOnUse">
<stop stop-color="#5992ED"/>
<stop offset="1" stop-color="#155BCB"/>
</linearGradient>
<linearGradient id="paint15_linear_374_16873" x1="311.819" y1="192.969" x2="210.306" y2="192.969" gradientUnits="userSpaceOnUse">
<stop stop-color="#5992ED"/>
<stop offset="1" stop-color="#155BCB"/>
</linearGradient>
<linearGradient id="paint16_linear_374_16873" x1="298.128" y1="198.356" x2="195.38" y2="198.356" gradientUnits="userSpaceOnUse">
<stop stop-color="#5992ED"/>
<stop offset="1" stop-color="#155BCB"/>
</linearGradient>
<linearGradient id="paint17_linear_374_16873" x1="282.876" y1="202.797" x2="181.265" y2="202.797" gradientUnits="userSpaceOnUse">
<stop stop-color="#5992ED"/>
<stop offset="1" stop-color="#155BCB"/>
</linearGradient>
<linearGradient id="paint18_linear_374_16873" x1="269.305" y1="209.623" x2="167.368" y2="209.623" gradientUnits="userSpaceOnUse">
<stop stop-color="#5992ED"/>
<stop offset="1" stop-color="#155BCB"/>
</linearGradient>
<linearGradient id="paint19_linear_374_16873" x1="255.493" y1="216.389" x2="153.665" y2="216.389" gradientUnits="userSpaceOnUse">
<stop stop-color="#5992ED"/>
<stop offset="1" stop-color="#155BCB"/>
</linearGradient>
<linearGradient id="paint20_linear_374_16873" x1="241.245" y1="222.888" x2="140.179" y2="222.888" gradientUnits="userSpaceOnUse">
<stop stop-color="#5992ED"/>
<stop offset="1" stop-color="#155BCB"/>
</linearGradient>
<linearGradient id="paint21_linear_374_16873" x1="226.464" y1="229.012" x2="126.947" y2="229.012" gradientUnits="userSpaceOnUse">
<stop stop-color="#5992ED"/>
<stop offset="1" stop-color="#155BCB"/>
</linearGradient>
<linearGradient id="paint22_linear_374_16873" x1="211.443" y1="235.149" x2="113.932" y2="235.149" gradientUnits="userSpaceOnUse">
<stop stop-color="#5992ED"/>
<stop offset="1" stop-color="#155BCB"/>
</linearGradient>
<linearGradient id="paint23_linear_374_16873" x1="196.178" y1="241.296" x2="101.196" y2="241.296" gradientUnits="userSpaceOnUse">
<stop stop-color="#5992ED"/>
<stop offset="1" stop-color="#155BCB"/>
</linearGradient>
<linearGradient id="paint24_linear_374_16873" x1="180.625" y1="247.409" x2="88.7266" y2="247.409" gradientUnits="userSpaceOnUse">
<stop stop-color="#5992ED"/>
<stop offset="1" stop-color="#155BCB"/>
</linearGradient>
<linearGradient id="paint25_linear_374_16873" x1="164.756" y1="253.532" x2="76.5712" y2="253.532" gradientUnits="userSpaceOnUse">
<stop stop-color="#5992ED"/>
<stop offset="1" stop-color="#155BCB"/>
</linearGradient>
<linearGradient id="paint26_linear_374_16873" x1="148.548" y1="259.68" x2="64.7539" y2="259.68" gradientUnits="userSpaceOnUse">
<stop stop-color="#5992ED"/>
<stop offset="1" stop-color="#155BCB"/>
</linearGradient>
<linearGradient id="paint27_linear_374_16873" x1="131.93" y1="265.818" x2="53.3607" y2="265.818" gradientUnits="userSpaceOnUse">
<stop stop-color="#5992ED"/>
<stop offset="1" stop-color="#155BCB"/>
</linearGradient>
<linearGradient id="paint28_linear_374_16873" x1="114.791" y1="271.941" x2="42.475" y2="271.941" gradientUnits="userSpaceOnUse">
<stop stop-color="#5992ED"/>
<stop offset="1" stop-color="#155BCB"/>
</linearGradient>
<linearGradient id="paint29_linear_374_16873" x1="96.9994" y1="278.09" x2="32.2547" y2="278.09" gradientUnits="userSpaceOnUse">
<stop stop-color="#5992ED"/>
<stop offset="1" stop-color="#155BCB"/>
</linearGradient>
<linearGradient id="paint30_linear_374_16873" x1="78.2643" y1="284.214" x2="22.9901" y2="284.214" gradientUnits="userSpaceOnUse">
<stop stop-color="#5992ED"/>
<stop offset="1" stop-color="#155BCB"/>
</linearGradient>
<linearGradient id="paint31_linear_374_16873" x1="57.8118" y1="290.362" x2="15.3824" y2="290.362" gradientUnits="userSpaceOnUse">
<stop stop-color="#5992ED"/>
<stop offset="1" stop-color="#155BCB"/>
</linearGradient>
<linearGradient id="paint32_linear_374_16873" x1="32.0975" y1="296.449" x2="13.06" y2="296.449" gradientUnits="userSpaceOnUse">
<stop stop-color="#5992ED"/>
<stop offset="1" stop-color="#155BCB"/>
</linearGradient>
<linearGradient id="paint33_linear_374_16873" x1="476.106" y1="212.189" x2="-11.868" y2="212.189" gradientUnits="userSpaceOnUse">
<stop stop-color="#0F174D"/>
<stop offset="1" stop-color="#1E2BB1"/>
</linearGradient>
<linearGradient id="paint34_linear_374_16873" x1="488.2" y1="346.035" x2="308.529" y2="346.035" gradientUnits="userSpaceOnUse">
<stop stop-color="#5992ED"/>
<stop offset="1" stop-color="#155BCB"/>
</linearGradient>
<linearGradient id="paint35_linear_374_16873" x1="151.064" y1="102.125" x2="-14.1541" y2="102.125" gradientUnits="userSpaceOnUse">
<stop stop-color="#5992ED"/>
<stop offset="1" stop-color="#155BCB"/>
</linearGradient>
<linearGradient id="paint36_linear_374_16873" x1="197.146" y1="8.37559" x2="180.66" y2="8.37559" gradientUnits="userSpaceOnUse">
<stop stop-color="#5992ED"/>
<stop offset="1" stop-color="#155BCB"/>
</linearGradient>
<linearGradient id="paint37_linear_374_16873" x1="197.025" y1="8.24262" x2="180.54" y2="8.24262" gradientUnits="userSpaceOnUse">
<stop stop-color="#5992ED"/>
<stop offset="1" stop-color="#155BCB"/>
</linearGradient>
<linearGradient id="paint38_linear_374_16873" x1="498.542" y1="288.038" x2="501.448" y2="254.9" gradientUnits="userSpaceOnUse">
<stop stop-color="#5992ED"/>
<stop offset="1" stop-color="#155BCB"/>
</linearGradient>
<clipPath id="clip0_374_16873">
<rect width="522" height="333" fill="white"/>
</clipPath>
<clipPath id="clip1_374_16873">
<rect width="544.276" height="390.234" fill="white" transform="translate(-32.6714)"/>
</clipPath>
<clipPath id="clip2_374_16873">
<rect width="161.872" height="244.547" fill="white" transform="translate(4.45508 107.036)"/>
</clipPath>
<clipPath id="clip3_374_16873">
<rect width="230.185" height="250.493" fill="white" transform="translate(291.815 82.5068)"/>
</clipPath>
<clipPath id="clip4_374_16873">
<rect width="202.711" height="244.547" fill="white" transform="translate(139.596 107.036)"/>
</clipPath>
</defs>
</svg>
